<svg xmlns="http://www.w3.org/2000/svg" width="1920" height="1080" viewBox="0 0 1920 1080">
  <defs>
    <linearGradient id="grad3" x1="0%" y1="0%" x2="100%" y2="100%">
      <stop offset="0%" style="stop-color:#9370DB;stop-opacity:1" />
      <stop offset="100%" style="stop-color:#483D8B;stop-opacity:1" />
    </linearGradient>
    <pattern id="pattern3" width="80" height="80" patternUnits="userSpaceOnUse">
      <path d="M40 0L80 40L40 80L0 40Z" fill="rgba(255,255,255,0.1)"/>
    </pattern>
  </defs>
  <rect width="100%" height="100%" fill="url(#grad3)"/>
  <rect width="100%" height="100%" fill="url(#pattern3)"/>
  <g fill="rgba(255,255,255,0.15)">
    <ellipse cx="300" cy="200" rx="150" ry="100"/>
    <ellipse cx="1600" cy="300" rx="200" ry="120"/>
    <ellipse cx="500" cy="800" rx="180" ry="150"/>
    <ellipse cx="1300" cy="700" rx="160" ry="140"/>
    <path d="M100,400 Q300,200 500,400 T900,400" stroke="rgba(255,255,255,0.2)" stroke-width="5" fill="none"/>
    <path d="M1000,300 Q1200,100 1400,300 T1800,300" stroke="rgba(255,255,255,0.2)" stroke-width="5" fill="none"/>
    <path d="M800,800 Q1000,600 1200,800 T1600,800" stroke="rgba(255,255,255,0.2)" stroke-width="5" fill="none"/>
  </g>
</svg>