<svg xmlns="http://www.w3.org/2000/svg" width="1920" height="1080" viewBox="0 0 1920 1080">
  <defs>
    <linearGradient id="grad4" x1="0%" y1="0%" x2="100%" y2="100%">
      <stop offset="0%" style="stop-color:#FFA500;stop-opacity:1" />
      <stop offset="100%" style="stop-color:#FF4500;stop-opacity:1" />
    </linearGradient>
    <pattern id="pattern4" width="90" height="90" patternUnits="userSpaceOnUse">
      <rect x="10" y="10" width="70" height="70" rx="15" fill="rgba(255,255,255,0.1)"/>
    </pattern>
  </defs>
  <rect width="100%" height="100%" fill="url(#grad4)"/>
  <rect width="100%" height="100%" fill="url(#pattern4)"/>
  <g fill="rgba(255,255,255,0.15)">
    <rect x="200" y="150" width="150" height="150" rx="20"/>
    <rect x="1500" y="250" width="200" height="200" rx="30"/>
    <rect x="400" y="750" width="180" height="180" rx="25"/>
    <rect x="1200" y="650" width="160" height="160" rx="20"/>
    <path d="M200,500 Q400,300 600,500 T1000,500" stroke="rgba(255,255,255,0.2)" stroke-width="5" fill="none"/>
    <path d="M900,300 Q1100,100 1300,300 T1700,300" stroke="rgba(255,255,255,0.2)" stroke-width="5" fill="none"/>
    <path d="M700,900 Q900,700 1100,900 T1500,900" stroke="rgba(255,255,255,0.2)" stroke-width="5" fill="none"/>
  </g>
</svg>