<svg xmlns="http://www.w3.org/2000/svg" width="1920" height="1080" viewBox="0 0 1920 1080">
  <defs>
    <linearGradient id="grad5" x1="0%" y1="0%" x2="100%" y2="100%">
      <stop offset="0%" style="stop-color:#32CD32;stop-opacity:1" />
      <stop offset="100%" style="stop-color:#006400;stop-opacity:1" />
    </linearGradient>
    <pattern id="pattern5" width="75" height="75" patternUnits="userSpaceOnUse">
      <path d="M37.5 0L75 37.5L37.5 75L0 37.5Z" fill="rgba(255,255,255,0.1)"/>
    </pattern>
  </defs>
  <rect width="100%" height="100%" fill="url(#grad5)"/>
  <rect width="100%" height="100%" fill="url(#pattern5)"/>
  <g fill="rgba(255,255,255,0.15)">
    <path d="M250,200 L350,150 L400,250 L300,300 Z"/>
    <path d="M1550,300 L1650,250 L1700,350 L1600,400 Z"/>
    <path d="M450,850 L550,800 L600,900 L500,950 Z"/>
    <path d="M1250,750 L1350,700 L1400,800 L1300,850 Z"/>
    <path d="M300,450 Q500,250 700,450 T1100,450" stroke="rgba(255,255,255,0.2)" stroke-width="5" fill="none"/>
    <path d="M800,350 Q1000,150 1200,350 T1600,350" stroke="rgba(255,255,255,0.2)" stroke-width="5" fill="none"/>
    <path d="M600,850 Q800,650 1000,850 T1400,850" stroke="rgba(255,255,255,0.2)" stroke-width="5" fill="none"/>
  </g>
</svg>